<?xml version="1.0" standalone="no"?>
<!DOCTYPE svg PUBLIC "-//W3C//DTD SVG 20010904//EN"
 "http://www.w3.org/TR/2001/REC-SVG-20010904/DTD/svg10.dtd">
<svg version="1.0" xmlns="http://www.w3.org/2000/svg"
 width="626.000000pt" height="626.000000pt" viewBox="0 0 626.000000 626.000000"
 preserveAspectRatio="xMidYMid meet">
<metadata>
Created by potrace 1.16, written by Peter Selinger 2001-2019
</metadata>
<g transform="translate(0.000000,626.000000) scale(0.100000,-0.100000)"
fill="#000000" stroke="none">
<path d="M3083 5159 c-36 -11 -83 -62 -83 -90 0 -11 5 -29 10 -39 10 -18 11
-18 56 1 30 14 55 18 74 14 29 -6 42 -25 18 -25 -30 0 -182 -85 -230 -129 -66
-61 -100 -121 -128 -230 -26 -103 -42 -129 -86 -137 -43 -8 -44 -28 -5 -111
73 -154 210 -216 322 -144 101 63 160 230 109 306 -28 42 -26 90 5 121 33 33
77 30 85 -6 6 -23 11 -25 57 -24 60 2 142 27 177 55 l25 20 16 -31 c8 -16 23
-30 32 -30 13 0 15 11 11 73 -7 112 -55 191 -147 240 -28 16 -70 31 -93 35
-32 6 -44 13 -46 27 -8 52 -14 65 -41 84 -34 25 -95 34 -138 20z"/>
<path d="M3710 3903 c-14 -2 -42 -8 -63 -14 -45 -12 -44 -16 12 -124 20 -38
36 -71 36 -72 0 -7 142 32 147 41 4 6 8 25 8 43 0 31 -1 31 -32 22 -18 -5 -39
-9 -45 -9 -19 0 -15 30 5 37 14 6 13 8 -8 13 -19 5 -25 13 -25 32 0 32 -3 35
-35 31z"/>
<path d="M2268 3381 c-106 -69 -141 -122 -172 -263 -4 -17 -18 -34 -36 -43
-17 -9 -30 -14 -30 -12 0 1 9 45 20 97 14 61 17 97 11 103 -13 13 -212 -67
-253 -101 -39 -33 -77 -110 -94 -195 -12 -57 -14 -119 -9 -312 4 -146 11 -249
18 -263 9 -19 8 -34 -6 -72 -25 -70 -20 -84 7 -21 27 62 26 62 50 -64 22 -115
26 -128 20 -60 -4 33 -15 93 -25 134 l-19 74 25 56 c16 34 45 74 75 102 41 37
54 59 75 120 l25 74 -25 18 c-34 25 -31 53 9 91 19 17 41 48 50 69 20 48 47
47 59 -3 4 -19 12 -49 18 -66 18 -60 -17 -114 -75 -114 -21 0 -27 -8 -45 -62
-11 -35 -23 -79 -25 -98 -3 -19 -14 -73 -25 -120 -18 -75 -26 -127 -47 -308
-5 -36 -9 -42 -27 -41 -44 4 -57 -1 -57 -21 0 -11 -4 -20 -10 -20 -5 0 -10 9
-10 19 0 11 -5 21 -10 23 -6 2 -14 23 -19 48 -9 45 -9 45 -10 -22 -1 -43 -5
-68 -12 -68 -8 0 -10 19 -6 63 4 40 3 55 -3 42 -5 -11 -9 -30 -9 -42 -1 -33
-29 -29 -37 5 -3 15 -10 40 -15 56 -5 16 -9 57 -9 91 0 51 -6 75 -35 133 -20
39 -57 94 -83 123 -26 29 -40 50 -32 46 8 -3 40 -11 71 -18 71 -16 78 -27 113
-179 45 -189 46 -189 41 -6 -3 93 -5 213 -5 266 l0 96 -40 23 c-35 19 -41 20
-46 7 -7 -19 -24 -21 -24 -3 0 24 -58 134 -90 171 -18 20 -46 44 -62 52 -37
19 -250 55 -262 43 -20 -18 82 -231 153 -319 25 -30 55 -63 67 -72 15 -12 20
-25 17 -43 -6 -30 -19 -33 -28 -5 -12 38 -117 140 -204 198 -105 71 -240 130
-251 111 -10 -15 -2 -73 16 -116 32 -80 191 -203 358 -278 l83 -38 12 -52 c12
-55 65 -129 101 -140 12 -4 29 -33 49 -85 37 -94 37 -96 11 -103 -19 -5 -20
-14 -20 -191 0 -203 6 -235 57 -288 26 -27 26 -28 5 -28 -27 0 -28 -21 -4 -43
16 -15 45 -17 198 -17 186 0 204 4 217 43 5 14 1 17 -23 17 l-30 0 35 45 c19
25 37 60 40 78 3 17 5 111 3 207 -3 173 -3 174 -26 180 -22 5 -21 8 32 66 51
57 59 61 108 67 61 6 143 39 176 70 32 30 53 71 68 135 11 46 10 54 -2 59 -27
10 -139 -4 -172 -21 -46 -24 -89 -88 -114 -170 -16 -54 -32 -83 -67 -121 -25
-27 -49 -51 -53 -53 -15 -7 69 188 106 247 28 44 31 51 17 51 -11 0 -99 -180
-131 -268 -12 -34 -25 -60 -28 -58 -20 20 182 471 216 483 9 3 27 17 39 32 18
20 25 23 34 14 10 -10 20 -8 48 9 24 15 36 18 39 10 2 -7 8 -12 14 -12 6 0 48
-12 94 -26 l84 -25 0 -47 c-1 -98 -137 -802 -156 -802 -15 0 -24 -23 -24 -61
0 -23 6 -32 27 -40 15 -6 41 -17 58 -24 43 -20 112 -34 168 -35 l48 0 -2 -85
c-1 -55 -6 -85 -13 -85 -7 0 -6 -3 2 -8 15 -10 5 -42 -13 -42 -7 0 -18 -7 -25
-15 -15 -17 -7 -19 21 -5 18 10 19 6 19 -169 l0 -181 25 -16 c28 -18 60 -12
75 15 5 10 10 85 10 167 1 85 6 154 12 162 7 8 7 12 -2 12 -9 0 -10 67 -5 288
l6 287 39 150 c21 83 46 170 55 194 8 24 13 46 11 48 -2 2 -26 9 -52 16 l-49
12 3 95 c2 52 5 95 5 96 1 0 125 -35 275 -80 l272 -80 0 -32 c0 -27 -5 -32
-37 -42 l-38 -11 -28 -228 c-24 -193 -31 -230 -47 -243 -11 -8 -22 -29 -26
-46 -5 -26 -1 -35 25 -57 17 -14 55 -31 84 -38 l54 -12 -2 -37 c-3 -44 -11
-60 -30 -60 -8 0 -17 -5 -21 -11 -5 -8 1 -10 20 -7 30 6 33 1 9 -19 -17 -14
-17 -14 -1 -9 17 5 18 -18 20 -351 3 -322 5 -357 20 -367 11 -7 26 -7 45 0
l28 9 6 170 c4 94 8 242 9 330 1 88 7 168 12 178 5 11 5 17 -2 17 -5 0 -10 5
-10 11 0 7 11 5 28 -5 l27 -17 -27 23 c-25 21 -28 31 -28 84 0 52 3 60 23 69
19 9 22 18 23 75 1 42 12 102 33 170 32 105 111 393 111 404 0 3 -14 3 -31 -1
l-31 -6 7 44 c4 24 10 47 14 50 3 3 416 117 916 253 501 136 913 251 918 255
4 4 -70 25 -165 46 -137 31 -172 37 -176 26 -9 -27 -74 -91 -120 -117 -44 -26
-55 -28 -162 -28 -105 0 -119 2 -166 26 -90 47 -144 106 -144 157 0 25 44 40
143 48 42 3 76 7 74 9 -4 4 -274 64 -287 64 -5 0 -10 -6 -10 -14 0 -8 -15 -23
-32 -34 -82 -49 -219 -72 -428 -72 -218 0 -333 22 -387 72 l-23 21 0 -44 0
-44 -383 -84 c-210 -46 -392 -86 -403 -89 -20 -4 -21 -2 -13 52 5 31 18 93 29
138 11 46 20 109 20 140 l0 56 -36 -10 c-20 -5 -41 -7 -48 -5 -7 3 -24 -17
-39 -44 -16 -27 -37 -55 -49 -63 -19 -13 -20 -24 -19 -123 0 -59 -3 -124 -7
-143 -7 -31 -13 -36 -50 -44 -23 -5 -45 -7 -47 -4 -3 3 1 21 9 40 8 19 18 70
22 114 7 72 6 78 -9 66 -22 -19 -38 -6 -31 24 6 23 4 24 -27 18 -86 -16 -207
-95 -226 -147 -6 -18 -9 -14 -13 23 -5 44 -4 47 51 105 60 64 90 115 120 204
23 66 36 185 21 194 -5 4 -43 -15 -84 -42z m2092 -413 c0 -6 -7 -19 -16 -29
-15 -16 -14 -17 4 -12 23 6 97 -30 105 -50 9 -25 -17 -60 -63 -84 -75 -39
-224 -62 -435 -69 -317 -11 -523 20 -580 88 -38 45 -30 68 32 98 34 16 53 31
53 43 0 9 7 17 15 17 8 0 15 -7 15 -15 0 -9 10 -26 23 -39 22 -23 47 -61 47
-71 0 -4 -6 -3 -12 1 -9 5 -10 4 -3 -3 6 -6 25 -14 43 -18 26 -5 32 -3 32 10
0 16 22 45 35 45 4 0 5 -7 1 -15 -7 -18 5 -20 22 -3 10 10 15 10 21 -1 11 -17
32 -5 24 14 -8 23 7 18 29 -10 11 -14 24 -23 29 -20 5 4 9 1 9 -5 0 -7 -7 -10
-15 -7 -8 4 -17 2 -20 -3 -6 -10 43 -27 99 -33 24 -3 35 -2 29 4 -12 12 -5 59
8 59 5 0 9 -4 9 -9 0 -5 7 -12 15 -15 9 -3 15 -1 14 7 -5 40 28 55 38 17 4
-16 9 -18 24 -9 19 10 21 8 34 -37 2 -6 20 -11 41 -12 27 -1 35 1 27 9 -9 9
-2 25 25 61 36 48 37 48 45 23 5 -14 15 -25 23 -25 8 0 14 -3 14 -7 0 -10 49
-33 68 -33 11 0 13 9 9 40 -5 38 5 55 16 28 4 -8 6 -7 6 4 1 9 6 18 13 20 6 2
12 15 14 29 1 13 3 25 3 27 3 8 31 0 31 -10z m170 -217 c0 -34 -141 -93 -303
-126 -267 -53 -597 -41 -806 30 -135 46 -173 82 -125 123 36 31 58 25 62 -16
3 -29 10 -37 45 -52 97 -43 206 -55 492 -54 236 0 283 3 371 21 55 12 118 30
140 40 34 16 39 23 42 55 l3 38 40 -20 c24 -13 39 -27 39 -39z m-2408 -73 c-4
-91 -5 -95 -73 -233 -38 -77 -84 -185 -103 -240 -22 -66 -39 -101 -50 -103 -9
-2 -16 0 -16 5 0 19 31 203 45 268 35 161 57 218 100 266 23 25 55 64 70 87
15 23 28 42 29 42 1 0 0 -42 -2 -92z m1286 -35 c48 -20 91 -40 96 -45 13 -10
-52 -78 -74 -78 -16 0 -164 61 -176 72 -11 12 39 88 58 88 5 0 49 -16 96 -37z
m-164 -71 c99 -43 184 -86 190 -95 12 -19 -8 -47 -35 -47 -27 0 -362 155 -373
173 -11 17 7 47 28 47 6 0 92 -35 190 -78z"/>
<path d="M3603 3215 c1 -25 6 -41 12 -38 7 2 11 -12 12 -33 1 -44 18 -65 28
-35 3 12 11 21 16 21 6 0 7 -6 4 -12 -4 -7 2 -4 12 7 22 25 78 33 69 10 -3 -8
0 -15 7 -15 19 0 39 -37 24 -43 -7 -3 8 -5 33 -5 25 0 37 2 27 5 -9 2 -15 9
-11 14 3 5 10 7 15 4 5 -4 9 4 9 17 0 18 2 20 10 8 8 -13 10 -12 10 3 0 18 11
22 24 10 4 -5 24 -8 44 -8 22 0 37 -5 38 -12 1 -7 2 -20 3 -28 1 -20 71 -21
71 -1 0 8 -4 16 -10 18 -16 5 1 47 22 53 10 4 25 1 33 -5 12 -10 15 -9 15 4 0
9 5 16 11 16 6 0 9 -7 5 -15 -3 -8 2 -21 10 -30 8 -8 12 -19 9 -25 -7 -12 5
-13 20 -2 16 11 15 71 -1 65 -18 -7 -30 25 -15 40 10 9 15 8 25 -6 12 -16 14
-14 20 14 9 48 8 49 -30 33 -61 -25 -251 -38 -384 -26 -65 6 -134 17 -153 26
l-35 14 1 -43z"/>
<path d="M4985 2686 l-40 -12 -6 -154 c-4 -85 -10 -422 -14 -748 -8 -632 -8
-622 41 -622 52 0 51 -10 58 542 3 282 9 624 12 761 4 141 3 247 -2 246 -5 0
-27 -6 -49 -13z"/>
<path d="M4319 2504 l-46 -14 -8 -580 c-5 -451 -4 -584 5 -595 15 -18 64 -20
78 -2 10 11 30 1208 21 1206 -2 0 -25 -7 -50 -15z"/>
</g>
</svg>
