<?xml version="1.0" standalone="no"?>
<!DOCTYPE svg PUBLIC "-//W3C//DTD SVG 20010904//EN"
 "http://www.w3.org/TR/2001/REC-SVG-20010904/DTD/svg10.dtd">
<svg version="1.0" xmlns="http://www.w3.org/2000/svg"
 width="1436.000000pt" height="1132.000000pt" viewBox="0 0 1436.000000 1132.000000"
 preserveAspectRatio="xMidYMid meet">

<g transform="translate(0.000000,1132.000000) scale(0.100000,-0.100000)"
fill="#000000" stroke="none">
<path d="M0 5660 l0 -5660 810 0 810 0 4 23 c3 12 24 121 46 242 129 695 216
980 464 1522 58 128 106 236 106 240 -1 5 -26 24 -56 43 -31 19 -73 55 -95 79
-115 129 -17 211 279 233 33 3 35 6 79 108 185 433 523 1323 636 1680 122 383
145 500 262 1340 90 647 218 1375 296 1684 66 263 121 380 278 589 140 187
221 320 340 557 299 600 472 1117 625 1871 56 275 146 930 146 1067 l0 42
-2515 0 -2515 0 0 -5660z m2800 5150 c0 -5 6 -7 14 -4 29 11 164 -63 148 -81
-4 -5 -1 -5 5 -1 13 7 61 -41 96 -95 15 -23 26 -29 53 -29 45 0 84 -21 119
-62 l28 -33 -568 -3 c-313 -1 -570 0 -573 3 -9 8 32 75 45 75 7 0 13 6 13 13
0 20 69 59 92 51 14 -4 18 -3 14 5 -6 8 8 10 48 7 31 -2 60 -7 66 -11 6 -4 36
20 68 52 58 59 123 99 177 109 16 3 32 7 34 10 9 9 121 4 121 -6z"/>
<path d="M6200 11296 c0 -13 34 -361 75 -773 41 -411 99 -1000 129 -1308 73
-732 63 -662 88 -668 29 -8 58 14 58 43 0 25 -31 350 -50 530 -6 52 -55 550
-110 1105 -55 556 -102 1029 -105 1053 -6 41 -7 42 -46 42 -35 0 -39 -3 -39
-24z"/>
<path d="M9083 7535 c-136 -25 -211 -55 -275 -113 -88 -79 -91 -172 -10 -298
33 -51 59 -74 176 -153 75 -51 145 -106 156 -121 l20 -28 34 34 c107 107 247
-51 155 -175 -27 -37 -93 -71 -137 -71 -27 0 -32 -4 -32 -22 0 -121 250 -212
395 -144 155 72 254 286 243 525 -3 53 -8 104 -13 114 -11 26 18 22 55 -9 48
-41 61 -77 69 -190 7 -95 10 -107 43 -156 77 -116 77 -117 63 -344 -15 -246
43 -463 183 -679 88 -137 169 -216 382 -370 156 -113 210 -195 249 -383 65
-303 230 -507 449 -553 82 -17 199 -6 265 24 202 92 275 351 167 595 -47 106
-122 198 -301 368 -93 89 -122 136 -189 304 -71 179 -103 220 -253 333 -170
127 -209 176 -256 320 -25 75 -90 169 -148 213 -134 102 -233 225 -318 394
-90 179 -186 295 -287 344 -53 26 -64 28 -145 23 -48 -2 -97 -8 -109 -11 -17
-6 -22 -1 -33 34 -15 50 -80 124 -134 151 -108 55 -301 74 -464 44z"/>
<path d="M6770 7254 c0 -5 11 -56 25 -114 14 -58 59 -251 100 -430 42 -179 82
-352 90 -385 8 -33 53 -226 100 -430 47 -203 102 -436 121 -516 18 -80 34
-151 34 -158 0 -21 -54 -81 -61 -69 -4 6 -6 -66 -4 -160 l2 -172 -96 -1 c-53
0 -150 -9 -216 -20 -159 -25 -154 -24 -161 -32 -14 -14 -40 -6 -53 16 -33 51
-70 133 -156 340 -67 162 -102 232 -186 369 -27 44 -49 83 -49 88 0 5 -3 10
-7 12 -5 2 -27 28 -49 58 -55 73 -113 134 -121 126 -4 -4 3 -17 16 -29 27 -27
127 -167 159 -222 52 -92 144 -280 205 -421 36 -84 88 -198 116 -255 l50 -104
-62 -21 c-35 -12 -76 -28 -94 -37 -17 -9 -33 -14 -36 -11 -3 3 -10 -4 -17 -15
-9 -18 -3 -36 40 -116 49 -90 70 -119 70 -96 0 6 3 10 8 9 4 -1 18 4 31 11 14
8 27 9 33 3 5 -5 42 -2 96 9 48 10 114 19 147 21 98 5 61 23 -45 22 l-95 -1
115 29 c95 24 139 29 252 31 89 1 141 -2 148 -9 6 -6 19 -38 29 -71 l19 -61
-57 -28 c-241 -122 -405 -339 -460 -611 -21 -100 -29 -287 -13 -296 5 -3 210
18 218 22 1 1 4 38 7 84 6 103 12 139 37 218 31 100 135 259 160 244 5 -3 8 0
5 7 -5 14 84 82 154 118 l44 22 18 -23 c10 -13 17 -30 14 -37 -3 -7 0 -10 5
-7 6 3 13 -2 17 -12 4 -10 13 -24 20 -31 7 -8 25 -30 40 -50 62 -86 228 -223
286 -237 22 -6 29 1 73 82 27 48 50 91 52 95 2 3 -23 24 -55 46 -169 115 -299
322 -363 577 -36 141 -49 237 -54 397 -5 135 -14 165 -60 186 -31 14 -11 -61
-167 612 -72 313 -82 354 -194 835 -36 154 -73 311 -81 349 -12 51 -31 92 -76
160 -66 101 -68 103 -68 90z m526 -2134 c13 0 29 9 38 21 l14 21 12 -22 c10
-18 9 -24 -1 -31 -29 -18 -119 1 -119 25 0 23 15 27 24 7 5 -13 18 -21 32 -21z"/>
<path d="M6260 6296 c0 -2 7 -7 16 -10 8 -3 12 -2 9 4 -6 10 -25 14 -25 6z"/>
<path d="M5650 6175 c-7 -9 -11 -17 -9 -20 3 -2 10 5 17 15 14 24 10 26 -8 5z"/>
<path d="M6390 6146 c0 -2 8 -10 18 -17 15 -13 16 -12 3 4 -13 16 -21 21 -21
13z"/>
<path d="M6526 5987 c3 -10 9 -15 12 -12 3 3 0 11 -7 18 -10 9 -11 8 -5 -6z"/>
<path d="M5972 5835 c4 -73 -1 -73 -28 0 -17 45 -19 47 -22 22 -5 -40 37 -137
59 -137 10 0 19 -6 22 -12 12 -32 19 29 9 69 -7 24 -12 54 -12 67 0 32 -10 56
-22 56 -6 0 -9 -25 -6 -65z"/>
<path d="M5791 5714 c-53 -59 -72 -90 -141 -219 -49 -92 -123 -207 -160 -247
-8 -9 -40 -46 -70 -82 -72 -86 -338 -356 -350 -356 -6 0 -10 -4 -10 -10 0 -5
4 -10 10 -10 15 0 244 226 315 310 34 41 82 96 106 121 49 52 104 131 204 298
37 63 77 124 87 135 30 32 60 85 56 97 -2 7 -23 -10 -47 -37z"/>
<path d="M6816 5625 c4 -8 11 -15 16 -15 6 0 5 6 -2 15 -7 8 -14 15 -16 15 -2
0 -1 -7 2 -15z"/>
<path d="M5336 5593 c-6 -14 -5 -15 5 -6 7 7 10 15 7 18 -3 3 -9 -2 -12 -12z"/>
<path d="M6846 5587 c3 -10 9 -15 12 -12 3 3 0 11 -7 18 -10 9 -11 8 -5 -6z"/>
<path d="M5286 5503 c-6 -14 -5 -15 5 -6 7 7 10 15 7 18 -3 3 -9 -2 -12 -12z"/>
<path d="M5769 5223 l-24 -28 28 24 c15 14 27 26 27 28 0 8 -8 1 -31 -24z"/>
<path d="M5479 4973 c-13 -16 -12 -17 4 -4 16 13 21 21 13 21 -2 0 -10 -8 -17
-17z"/>
<path d="M5140 3849 c0 -5 5 -7 10 -4 6 3 10 8 10 11 0 2 -4 4 -10 4 -5 0 -10
-5 -10 -11z"/>
<path d="M4779 3573 c-13 -16 -12 -17 4 -4 9 7 17 15 17 17 0 8 -8 3 -21 -13z"/>
<path d="M4896 3064 c-23 -23 -20 -30 4 -9 11 10 20 20 20 22 0 7 -9 2 -24
-13z"/>
<path d="M4839 2943 c-13 -16 -12 -17 4 -4 16 13 21 21 13 21 -2 0 -10 -8 -17
-17z"/>
<path d="M3726 2825 c-11 -8 -15 -15 -9 -15 6 0 16 7 23 15 16 19 11 19 -14 0z"/>
<path d="M4515 2720 c-3 -6 1 -7 9 -4 18 7 21 14 7 14 -6 0 -13 -4 -16 -10z"/>
<path d="M3320 2390 c0 -5 5 -10 11 -10 5 0 7 5 4 10 -3 6 -8 10 -11 10 -2 0
-4 -4 -4 -10z"/>
<path d="M3400 2316 c0 -2 8 -10 18 -17 15 -13 16 -12 3 4 -13 16 -21 21 -21
13z"/>
</g>
</svg>
